<svg width="24" height="24" viewBox="0 0 24 24" fill="none" xmlns="http://www.w3.org/2000/svg">
<path d="M12 4.19999C9.93132 4.19999 7.94736 5.02178 6.48457 6.48456C5.02179 7.94734 4.2 9.93131 4.2 12C4.2 14.0687 5.02179 16.0526 6.48457 17.5154C7.94736 18.9782 9.93132 19.8 12 19.8V4.19999ZM12 2.39999C14.5461 2.39999 16.9879 3.41142 18.7882 5.21177C20.5886 7.01212 21.6 9.45392 21.6 12C21.6 14.5461 20.5886 16.9879 18.7882 18.7882C16.9879 20.5886 14.5461 21.6 12 21.6C9.45393 21.6 7.01213 20.5886 5.21178 18.7882C3.41143 16.9879 2.40001 14.5461 2.40001 12C2.40001 9.45392 3.41143 7.01212 5.21178 5.21177C7.01213 3.41142 9.45393 2.39999 12 2.39999Z" fill="#76F983"/>
</svg>
